<?xml version="1.0" standalone="no"?>
<!DOCTYPE svg PUBLIC "-//W3C//DTD SVG 20010904//EN"
 "http://www.w3.org/TR/2001/REC-SVG-20010904/DTD/svg10.dtd">
<svg version="1.0" xmlns="http://www.w3.org/2000/svg"
 width="1280.000000pt" height="1280.000000pt" viewBox="0 0 1280.000000 1280.000000"
 preserveAspectRatio="xMidYMid meet">
<metadata>
Created by potrace 1.15, written by Peter Selinger 2001-2017
</metadata>
<g transform="translate(0.000000,1280.000000) scale(0.100000,-0.100000)"
fill="#000000" stroke="none">
<path d="M2479 12009 c-87 -13 -312 -66 -397 -95 -284 -94 -596 -324 -786
-578 -177 -236 -246 -384 -311 -666 -19 -80 -39 -189 -44 -242 -15 -133 -15
-7896 -1 -8022 24 -209 99 -472 179 -630 105 -206 294 -437 466 -571 230 -179
389 -258 654 -325 258 -65 -91 -60 4296 -60 4372 0 4031 -5 4290 59 230 57
372 121 569 259 234 164 428 390 556 647 92 185 158 422 180 647 7 69 10 1412
7 4058 -3 3717 -4 3960 -20 4040 -73 350 -141 521 -304 752 -104 149 -224 273
-364 377 -217 163 -371 237 -609 297 -279 69 80 64 -4320 63 -2192 -1 -4010
-5 -4041 -10z m7354 -1429 c260 -30 537 -213 677 -448 57 -97 107 -225 120
-307 7 -49 10 -1075 8 -3425 l-3 -3355 -29 -75 c-102 -269 -258 -450 -481
-560 -123 -60 -177 -78 -274 -91 -50 -6 -1237 -9 -3401 -7 l-3325 3 -104 37
c-304 109 -510 316 -618 623 l-28 80 0 3390 0 3390 23 70 c57 169 135 295 254
411 91 89 164 140 272 189 101 45 166 65 244 75 103 12 6560 12 6665 0z"/>
<path d="M6430 9826 c-41 -19 -801 -360 -1689 -759 -887 -399 -1622 -734
-1632 -743 -18 -16 -19 -34 -19 -239 0 -202 2 -225 18 -246 l19 -22 3404 2
3404 2 23 25 c21 24 22 31 22 238 0 189 -2 216 -17 235 -10 11 -184 96 -388
187 -203 91 -725 326 -1160 521 -434 195 -1029 463 -1322 594 -297 133 -544
239 -560 239 -15 0 -62 -16 -103 -34z"/>
<path d="M4000 7693 c-8 -3 -23 -12 -32 -21 -17 -14 -18 -100 -18 -1533 l0
-1518 26 -20 c26 -21 36 -21 539 -21 490 0 514 1 536 19 l24 19 0 1521 c0
1446 -1 1521 -18 1538 -16 17 -53 18 -530 20 -282 1 -519 -1 -527 -4z"/>
<path d="M5973 7690 c-12 -5 -26 -18 -32 -29 -8 -14 -11 -479 -11 -1526 l0
-1506 25 -24 24 -25 514 0 c505 0 515 0 541 21 l26 20 0 1514 c0 1474 0 1513
-19 1536 l-19 24 -514 2 c-284 1 -523 -2 -535 -7z"/>
<path d="M7866 7679 l-26 -20 0 -1519 0 -1519 26 -20 c26 -21 36 -21 539 -21
490 0 514 1 536 19 l24 19 3 1494 c2 1008 0 1505 -7 1529 -7 23 -20 40 -36 47
-19 9 -168 12 -529 12 -494 0 -504 0 -530 -21z"/>
<path d="M3520 4423 c-49 -18 -50 -23 -50 -248 0 -203 1 -213 21 -231 21 -19
85 -19 3006 -19 2943 0 2985 0 2999 19 11 16 14 64 14 230 0 116 -4 216 -8
223 -4 6 -20 17 -35 22 -30 11 -5917 15 -5947 4z"/>
<path d="M3243 3770 c-12 -5 -26 -18 -32 -29 -7 -13 -11 -141 -11 -369 0 -329
1 -351 19 -373 l19 -24 3297 0 3297 0 19 24 c19 23 20 40 17 382 -3 328 -4
360 -21 376 -17 17 -164 18 -3300 20 -1879 1 -3291 -2 -3304 -7z"/>
</g>
</svg>
