<?xml version="1.0" encoding="utf-8"?>
<!-- Generator: Adobe Illustrator 17.0.0, SVG Export Plug-In . SVG Version: 6.00 Build 0)  -->
<!DOCTYPE svg PUBLIC "-//W3C//DTD SVG 1.1//EN" "http://www.w3.org/Graphics/SVG/1.1/DTD/svg11.dtd">
<svg version="1.1" id="Layer_1" xmlns="http://www.w3.org/2000/svg" xmlns:xlink="http://www.w3.org/1999/xlink" x="0px" y="0px"
	 width="465.911px" height="216.022px" viewBox="0 0 465.911 216.022" enable-background="new 0 0 465.911 216.022"
	 xml:space="preserve">
<g>
	<polyline fill="#FF1100" points="389.134,148.243 428.53,148.243 428.53,157.402 395.19,157.402 384.563,148.245 	"/>
	<rect x="384.514" y="152.136" fill="#28731F" width="4.566" height="3.934"/>
	<rect x="389.092" y="156.083" fill="#28731F" width="4.566" height="3.927"/>
	<rect x="393.666" y="160.02" fill="#28731F" width="4.563" height="3.934"/>
	<rect x="398.24" y="163.964" fill="#28731F" width="4.568" height="3.931"/>
	<rect x="402.822" y="167.904" fill="#28731F" width="4.565" height="3.934"/>
	<rect x="407.395" y="171.773" fill="#28731F" width="4.564" height="3.934"/>
	<rect x="384.514" y="156.083" fill="#084C8E" width="4.566" height="3.927"/>
	<rect x="389.092" y="160.02" fill="#084C8E" width="4.566" height="3.934"/>
	<rect x="393.666" y="163.964" fill="#084C8E" width="4.563" height="3.931"/>
	<rect x="398.24" y="167.904" fill="#084C8E" width="4.568" height="3.934"/>
	<rect x="402.822" y="171.773" fill="#084C8E" width="4.565" height="3.934"/>
	<rect x="384.514" y="160.029" fill="#5B2A90" width="4.566" height="3.936"/>
	<rect x="389.092" y="163.974" fill="#5B2A90" width="4.566" height="3.93"/>
	<rect x="393.666" y="167.913" fill="#5B2A90" width="4.563" height="3.935"/>
	<rect x="398.24" y="171.773" fill="#5B2A90" width="4.568" height="3.934"/>
	<rect x="384.514" y="163.964" fill="#FF1100" width="4.566" height="3.931"/>
	<rect x="389.092" y="167.904" fill="#FF1100" width="4.566" height="3.934"/>
	<rect x="393.666" y="171.773" fill="#FF1100" width="4.563" height="3.934"/>
	<rect x="384.514" y="167.831" fill="#FA7600" width="4.566" height="3.934"/>
	<rect x="389.092" y="171.773" fill="#FA7600" width="4.566" height="3.934"/>
	<rect x="384.514" y="171.773" fill="#FFBF00" width="4.566" height="3.934"/>
	<polyline fill="#FFBF00" points="395.198,157.402 428.53,157.402 428.53,166.563 405.789,166.563 395.203,157.409 	"/>
	<polyline fill="#28731F" points="405.754,166.546 428.53,166.546 428.53,175.707 416.709,175.707 405.754,166.552 	"/>
	<g>
		<path d="M254.592,114.092v-3.505c-1.833,0.878-3.894,1.39-5.957,1.826c-3.361,0.729-5.124,1.53-5.124,4.09
			c0,1.75,1.993,3.497,4.741,3.497C251.687,120.001,254.362,118.034,254.592,114.092 M267.503,122.313
			c-2.357,4.188-7.027,6.226-11.995,6.226h-13.47c-7.636,0-13.949-3.506-13.949-11.455c0-11.967,14.667-11.53,22.376-12.916
			c2.066-0.364,4.127-0.945,4.127-3.356c0-2.556-2.522-3.503-4.964-3.503c-4.655,0-5.577,2.263-5.65,3.871h-14.054
			c0.455-10.655,10.999-12.408,20.392-12.408c10.96,0,15.528,2.5,17.434,6.021c-3.528,3.453-5.677,8.228-5.677,13.903
			C262.071,114.236,264.119,118.902,267.503,122.313"/>
		<path d="M115.258,108.621c0-4.453-1.22-9.341-6.644-9.341c-5.422,0-6.64,4.888-6.64,9.341c0,4.522,1.217,9.413,6.64,9.413
			C114.037,118.034,115.258,113.142,115.258,108.621 M103.497,128.539c-11.227,0-16.654-10.582-16.654-20.064
			c0-8.903,3.597-19.701,16.887-19.701c4.504,0,8.552,1.898,10.845,5.107h0.149V79.73h15.127l-0.02,35.965
			c0,8.682-6.493,12.844-13.601,12.844H103.497z"/>
		<path d="M222.868,104.095c-0.916-10.432-9.778-15.324-20.164-15.324c-11.913,0-21.465,7.955-21.465,19.925
			c0,11.964,9.553,19.843,21.465,19.843c10.692,0,19.166-5.761,20.623-16.049H208.89c-0.308,2.988-2.596,5.544-5.88,5.544
			c-5.802,0-6.644-4.747-6.644-9.338c0-4.601,0.842-9.416,6.644-9.416c1.6,0,2.903,0.438,3.818,1.239
			c0.994,0.802,1.525,2.043,1.685,3.576H222.868z"/>
		<path d="M310.235,104.095c-0.917-10.432-9.774-15.324-20.159-15.324c-11.922,0-21.468,7.955-21.468,19.925
			c0,11.964,9.546,19.843,21.468,19.843c10.69,0,19.167-5.761,20.618-16.049h-14.435c-0.308,2.988-2.598,5.544-5.882,5.544
			c-5.809,0-6.646-4.747-6.646-9.338c0-4.601,0.838-9.416,6.646-9.416c1.605,0,2.902,0.438,3.82,1.239
			c0.991,0.802,1.528,2.043,1.678,3.576H310.235z"/>
		<path d="M338.688,95.856v-8.16l-6.905,4.348L338.688,95.856z M331.784,83.347l6.905,4.347v-8.155L331.784,83.347z M324.871,96.392
			l6.902,3.81v-8.158L324.871,96.392z M324.871,79.002l6.902,4.346v-8.152L324.871,79.002z M317.965,83.347l6.902-4.346l-6.902-3.81
			V83.347z M311.056,95.856l6.909-3.813l-6.909-4.348V95.856z M311.056,87.694l6.909-4.349l-6.909-3.81V87.694z M319.207,88.205
			l5.596,3.538l5.623-3.538l-5.593-3.536L319.207,88.205z M317.965,100.202l6.902-3.81l-6.902-4.355V100.202z M324.876,100.591
			l-8.936,4.926v16.273c0,3.199,2.717,5.801,6.074,5.801h5.723c3.352,0,6.076-2.61,6.076-5.813v-16.258L324.876,100.591z"/>
		<path d="M428.526,116.276c0-1.024-0.871-1.853-1.937-1.853l-6.915-0.007c-1.068,0-1.941,0.827-1.941,1.859v5.628
			c0,1.025,0.873,1.871,1.941,1.871l2.382-0.016c1.073,0,1.955-0.814,1.955-1.84v-3.693h-2.111v2.965
			c0,0.31-0.246,0.559-0.568,0.559l-0.904-0.004c-0.322,0-0.584-0.239-0.584-0.549l0.005-4.209c0-0.309,0.264-0.554,0.584-0.554
			h5.407c0.325,0,0.58,0.248,0.58,0.56l-0.088,8.785c0,0.309-0.296,0.555-0.621,0.555l-6.885-0.003
			c-1.906,0-3.455-1.501-3.455-3.288v-8.475c0-1.803,1.536-3.275,3.431-3.275l9.729,0.008v-8.738c0-8.679-6.484-12.84-13.586-12.84
			h-15.509c-7.105,0-13.604,4.161-13.604,12.84v17.364v8.612h21.193c1.958,0,3.522-1.515,3.522-3.377l0.021-15.309
			c0-1.862-1.583-3.373-3.535-3.373h-8.67c-1.951,0-3.565,1.511-3.565,3.367l0.02,6.615c0,1.869,1.557,3.393,3.511,3.393h3.788
			v-4.692h-1.32c-0.586,0-1.065-0.427-1.065-0.989l0.015-1.982c0-0.561,0.452-1.017,1.042-1.017l3.8,0.011
			c0.592,0,1.054,0.454,1.054,1.012v10.634c0,0.558-0.484,1.011-1.069,1.011h-12.211c-0.591,0-1.058-0.512-1.058-1.076l0.011-14.069
			c0-4.38,0.526-7.446,4.953-7.446h12.163c4.438,0,4.971,3.066,4.971,7.446l0.008,19.843h15.12L428.526,116.276z"/>
		<path d="M55.564,113.323l9.862-5.369l-9.813-5.41c-1.59,1.319-2.563,3.257-2.563,5.4C53.05,110.078,54.02,112.004,55.564,113.323
			 M79.824,113.373c0.412-1.652,0.663-3.639,0.663-5.429c0-11.372-9.65-20.589-21.549-20.589c-11.904,0-21.557,9.217-21.557,20.589
			c0,11.369,9.682,20.587,21.584,20.587l1.128-0.016v-10.85h-1.128c-5.623,0-10.282-4.352-10.282-9.721
			c0-5.37,4.555-9.724,10.178-9.724c3.39,0,6.729,1.823,8.381,4.29l-4.799-0.005l9.884,5.448l-9.904,5.429L79.824,113.373z
			 M64.31,117.634l-0.059,10.875l9.962-5.424L64.31,117.634z M80.44,123.437l-9.255,5.102h7.611
			C79.694,126.998,80.27,125.276,80.44,123.437 M71.255,117.665l9.224,5.089l0.008-0.44c0-1.645-0.316-3.201-0.907-4.648H71.255z"/>
		<path d="M164.798,104.483l-8.51-12.538l-8.507,12.538l8.507,12.534L164.798,104.483z M159.454,104.483
			c0,1.669-1.417,3.024-3.165,3.024c-1.749,0-3.176-1.355-3.176-3.024c0-1.679,1.427-3.027,3.176-3.027
			C158.036,101.456,159.454,102.804,159.454,104.483 M176.91,115.695V89.722h-15.106l10.018,14.761l-15.533,22.888l-15.534-22.888
			l10.018-14.761h-15.107v25.973c0,8.682,6.492,12.844,13.591,12.844h14.057C170.418,128.539,176.91,124.377,176.91,115.695"/>
		<path d="M365.142,89.039l-13.533,6.247l4.223-6.058c-11.199,1.964-16.316,10.241-16.316,19.41c0,10.508,6.72,19.917,21.613,19.917
			c14.891,0,21.616-9.409,21.616-19.917C382.746,99.127,377.241,90.574,365.142,89.039 M367.618,108.637
			c0,4.013-0.764,9.411-6.488,9.411c-5.728,0-6.492-5.398-6.492-9.411c0-4.013,0.765-9.339,6.492-9.339
			C366.854,99.298,367.618,104.625,367.618,108.637 M361.13,88.793c1.409,0,2.751,0.084,4.013,0.246l12.311-5.691h-17.535
			l-4.085,5.88C357.467,88.943,359.232,88.793,361.13,88.793"/>
	</g>
	<rect x="37.381" y="139.606" width="391.149" height="3.068"/>
	<g>
		<path d="M37.381,57.908h6.196V44.71l4.766,13.197h5.612l4.774-13.197v13.197h6.194V40.609h-9.944l-3.808,10.524l-3.844-10.524
			h-9.946V57.908z M76.888,57.908h7.584V40.609h-7.584V57.908z M96.788,57.908h7.113v-9.496l9.167,9.496h7.133V40.609h-7.133v9.57
			l-9.216-9.57h-7.064V57.908z M132.372,57.908h7.579V40.609h-7.579V57.908z M153.621,56.504c1.602,1.137,4.486,1.699,8.655,1.699
			c2.375,0,4.329-0.242,5.891-0.729c1.558-0.479,2.771-1.19,3.639-2.128c0.871-0.939,1.304-1.957,1.304-3.067
			c0-0.941-0.324-1.797-0.979-2.561c-0.646-0.762-1.688-1.402-3.12-1.916c-1.434-0.516-3.801-1.025-7.107-1.528
			c-1.334-0.196-2.181-0.409-2.537-0.638c-0.368-0.223-0.55-0.469-0.55-0.748c0-0.375,0.224-0.691,0.667-0.959
			c0.443-0.262,1.108-0.395,1.989-0.395c1.065,0,1.907,0.18,2.509,0.532c0.607,0.349,1.004,0.921,1.195,1.701l7.133-0.302
			c-0.315-1.79-1.29-3.097-2.932-3.917c-1.645-0.824-4.027-1.234-7.152-1.234c-2.556,0-4.563,0.228-6.027,0.679
			c-1.464,0.451-2.556,1.074-3.289,1.861c-0.727,0.791-1.095,1.631-1.095,2.52c0,1.352,0.714,2.467,2.138,3.339
			c1.416,0.876,3.783,1.579,7.1,2.103c2.023,0.314,3.321,0.648,3.873,1c0.558,0.355,0.834,0.76,0.834,1.207
			c0,0.469-0.292,0.887-0.876,1.243c-0.584,0.358-1.415,0.54-2.497,0.54c-1.449,0-2.56-0.353-3.34-1.055
			c-0.478-0.428-0.795-1.061-0.954-1.887l-7.195,0.32C151.111,53.932,152.02,55.369,153.621,56.504 M182.041,44.882h7.711v13.025
			h7.566V44.882h7.716v-4.273h-22.993V44.882z M215.282,57.908h20.641v-3.916h-13.059v-3.411h11.774v-3.532h-11.774v-2.745h12.692
			v-3.694h-20.274V57.908z M254.535,57.908v-7.023h0.667c0.689,0,1.31,0.139,1.856,0.404c0.397,0.203,0.854,0.646,1.365,1.333
			l4.046,5.286h8.549l-3.663-5.014c-0.176-0.249-0.532-0.607-1.061-1.07c-0.527-0.466-0.931-0.768-1.21-0.914
			c-0.415-0.213-1.065-0.424-1.969-0.637c1.126-0.179,2.011-0.406,2.656-0.683c1.017-0.433,1.807-0.996,2.389-1.693
			c0.582-0.699,0.867-1.527,0.867-2.484c0-1.1-0.38-2.033-1.131-2.803c-0.758-0.764-1.755-1.291-2.987-1.576
			c-1.236-0.282-3.024-0.424-5.368-0.424h-12.606v17.299H254.535z M254.535,44.098h3.324c1.383,0,2.325,0.152,2.825,0.452
			c0.498,0.3,0.746,0.727,0.746,1.285c0,0.379-0.159,0.714-0.468,1.002c-0.32,0.295-0.731,0.475-1.233,0.544
			c-0.987,0.159-1.658,0.237-2.001,0.237h-3.193V44.098z M280.582,57.908h7.581V40.609h-7.581V57.908z M301.167,54.322
			c1.12,1.344,2.59,2.329,4.401,2.944c1.811,0.624,4.092,0.937,6.853,0.937c2.715,0,4.983-0.355,6.808-1.078
			c1.816-0.725,3.208-1.725,4.174-3.02c0.963-1.296,1.442-2.958,1.442-4.977c0-2.785-1.101-4.955-3.307-6.497
			c-2.203-1.546-5.345-2.316-9.418-2.316c-3.971,0-7.076,0.786-9.303,2.355c-2.226,1.577-3.339,3.774-3.339,6.602
			C299.479,51.293,300.042,52.972,301.167,54.322 M308.431,45.508c0.925-0.764,2.147-1.149,3.673-1.149
			c1.594,0,2.852,0.383,3.786,1.131c0.927,0.754,1.388,1.938,1.388,3.568c0,1.933-0.443,3.273-1.331,4.023
			c-0.89,0.748-2.15,1.12-3.772,1.12c-1.588,0-2.835-0.378-3.756-1.143c-0.915-0.764-1.376-2.017-1.376-3.765
			C307.044,47.533,307.51,46.269,308.431,45.508 M372.353,57.908h11.246c1.342,0,2.844-0.158,4.5-0.473
			c1.219-0.229,2.356-0.69,3.412-1.371c1.055-0.691,1.887-1.549,2.48-2.566c0.598-1.019,0.891-2.449,0.891-4.301
			c0-1.178-0.199-2.295-0.599-3.35c-0.401-1.05-1.047-1.979-1.939-2.771c-0.883-0.796-2.015-1.408-3.383-1.828
			c-1.367-0.428-3.15-0.639-5.363-0.639h-11.246V57.908z M381.807,44.526c1.961,0,3.362,0.335,4.211,1.016
			c0.843,0.673,1.269,1.931,1.269,3.766c0,1.38-0.188,2.384-0.568,3.003c-0.379,0.619-0.9,1.048-1.57,1.297
			c-0.67,0.248-1.789,0.371-3.371,0.371h-1.856v-9.452H381.807z M405.68,57.908h20.643v-3.916h-13.06v-3.411h11.773v-3.532h-11.773
			v-2.745h12.697v-3.694h-20.28V57.908z"/>
	</g>
	<polygon points="38.653,169.74 38.653,157.155 47.982,157.155 47.982,159.288 41.19,159.288 41.19,162.078 47.512,162.078 
		47.512,164.196 41.19,164.196 41.19,167.621 48.223,167.621 48.223,169.74 	"/>
	<g>
		<path d="M49.93,165.644l2.468-0.234c0.146,0.824,0.449,1.436,0.909,1.82c0.45,0.393,1.066,0.588,1.838,0.588
			c0.818,0,1.437-0.174,1.847-0.522c0.417-0.348,0.626-0.749,0.626-1.21c0-0.299-0.087-0.557-0.264-0.766
			c-0.173-0.204-0.478-0.389-0.914-0.547c-0.296-0.1-0.973-0.28-2.035-0.545c-1.362-0.339-2.319-0.755-2.868-1.243
			c-0.771-0.693-1.152-1.537-1.152-2.536c0-0.633,0.178-1.237,0.539-1.791c0.362-0.559,0.888-0.986,1.572-1.279
			c0.686-0.289,1.507-0.44,2.475-0.44c1.584,0,2.768,0.354,3.567,1.041c0.798,0.694,1.217,1.619,1.261,2.773l-2.542,0.115
			c-0.111-0.651-0.341-1.118-0.703-1.398c-0.358-0.284-0.891-0.422-1.602-0.422c-0.742,0-1.322,0.148-1.739,0.451
			c-0.268,0.196-0.404,0.46-0.404,0.781c0,0.299,0.127,0.555,0.378,0.768c0.319,0.268,1.103,0.549,2.335,0.836
			c1.235,0.291,2.149,0.596,2.738,0.908c0.594,0.313,1.057,0.738,1.394,1.283c0.333,0.539,0.5,1.203,0.5,1.998
			c0,0.723-0.203,1.398-0.597,2.031c-0.402,0.627-0.972,1.096-1.703,1.403c-0.73,0.303-1.645,0.456-2.74,0.456
			c-1.59,0-2.804-0.368-3.666-1.102C50.601,168.128,50.091,167.048,49.93,165.644"/>
	</g>
	<polygon points="65.321,169.74 65.321,159.288 61.586,159.288 61.586,157.155 71.586,157.155 71.586,159.288 67.859,159.288 
		67.859,169.74 	"/>
	<path d="M78.784,164.761l-1.732-4.67l-1.698,4.67H78.784z M83.462,169.74h-2.765l-1.094-2.854h-5.031l-1.038,2.854h-2.697
		l4.9-12.585h2.688L83.462,169.74z"/>
	<g>
		<path d="M87.53,159.288v8.333h1.898c0.712,0,1.227-0.045,1.546-0.125c0.411-0.102,0.746-0.275,1.022-0.52
			c0.268-0.246,0.49-0.651,0.661-1.216c0.17-0.564,0.261-1.331,0.261-2.306c0-0.969-0.091-1.719-0.261-2.242
			c-0.171-0.521-0.409-0.922-0.721-1.217c-0.312-0.291-0.697-0.488-1.176-0.59c-0.358-0.08-1.051-0.118-2.087-0.118H87.53z
			 M84.993,157.155h4.644c1.045,0,1.845,0.078,2.396,0.24c0.734,0.216,1.37,0.605,1.895,1.164c0.524,0.55,0.928,1.233,1.205,2.038
			c0.269,0.801,0.407,1.79,0.407,2.972c0,1.036-0.127,1.925-0.381,2.677c-0.319,0.914-0.769,1.658-1.352,2.223
			c-0.441,0.43-1.036,0.766-1.788,1.002c-0.554,0.184-1.305,0.27-2.247,0.27h-4.78V157.155z"/>
		<path d="M99.995,163.439c0,1.424,0.326,2.51,0.987,3.239c0.652,0.738,1.492,1.105,2.506,1.105c1.011,0,1.84-0.366,2.49-1.095
			c0.652-0.73,0.972-1.826,0.972-3.285c0-1.441-0.308-2.514-0.945-3.227c-0.634-0.708-1.47-1.062-2.517-1.062
			c-1.053,0-1.892,0.354-2.533,1.076C100.314,160.909,99.995,161.99,99.995,163.439 M97.372,163.524
			c0-1.282,0.193-2.352,0.578-3.222c0.288-0.646,0.676-1.223,1.173-1.727c0.491-0.515,1.038-0.891,1.624-1.137
			c0.785-0.33,1.688-0.501,2.713-0.501c1.853,0,3.337,0.581,4.445,1.732c1.119,1.149,1.673,2.748,1.673,4.797
			c0,2.026-0.554,3.614-1.658,4.765c-1.105,1.148-2.583,1.721-4.426,1.721c-1.872,0-3.358-0.568-4.462-1.713
			C97.928,167.099,97.372,165.525,97.372,163.524"/>
		<path d="M119.373,159.288v3.563h1.395c0.998,0,1.67-0.061,2-0.19c0.339-0.135,0.604-0.341,0.797-0.62
			c0.19-0.281,0.287-0.607,0.287-0.977c0-0.458-0.135-0.842-0.403-1.134c-0.27-0.298-0.611-0.485-1.019-0.558
			c-0.308-0.057-0.916-0.085-1.83-0.085H119.373z M116.831,169.74v-12.585h4.077c1.546,0,2.559,0.067,3.022,0.189
			c0.721,0.189,1.326,0.599,1.812,1.236c0.482,0.626,0.728,1.444,0.728,2.442c0,0.778-0.139,1.428-0.418,1.953
			c-0.281,0.522-0.641,0.938-1.068,1.239c-0.432,0.303-0.873,0.496-1.316,0.596c-0.607,0.12-1.482,0.181-2.639,0.181h-1.655v4.748
			H116.831z"/>
	</g>
	<polygon points="128.819,169.74 128.819,157.258 131.362,157.258 131.362,167.621 137.676,167.621 137.676,169.74 	"/>
	<g>
		<path d="M139.662,157.155h2.544v6.815c0,1.08,0.025,1.787,0.09,2.102c0.112,0.52,0.368,0.933,0.784,1.244
			c0.404,0.311,0.967,0.468,1.674,0.468c0.724,0,1.265-0.151,1.631-0.444c0.367-0.297,0.587-0.658,0.66-1.084
			c0.073-0.434,0.111-1.14,0.111-2.139v-6.962h2.541v6.609c0,1.51-0.068,2.583-0.204,3.2c-0.139,0.625-0.396,1.156-0.756,1.58
			c-0.373,0.432-0.865,0.771-1.487,1.027c-0.612,0.252-1.424,0.381-2.417,0.381c-1.204,0-2.113-0.139-2.737-0.415
			c-0.619-0.279-1.11-0.64-1.471-1.082c-0.362-0.446-0.597-0.907-0.712-1.396c-0.164-0.721-0.25-1.786-0.25-3.191V157.155z"/>
		<path d="M155.117,162.478h1.882c1.216,0,1.983-0.051,2.278-0.153c0.308-0.105,0.544-0.284,0.716-0.532
			c0.169-0.256,0.254-0.568,0.254-0.946c0-0.422-0.112-0.765-0.338-1.022c-0.222-0.262-0.541-0.426-0.954-0.494
			c-0.206-0.029-0.826-0.042-1.859-0.042h-1.98V162.478z M152.579,169.74v-12.585h5.343c1.345,0,2.325,0.116,2.932,0.339
			c0.611,0.222,1.099,0.633,1.46,1.207c0.366,0.576,0.554,1.234,0.554,1.982c0,0.945-0.278,1.727-0.834,2.339
			c-0.556,0.615-1.388,1.004-2.491,1.161c0.554,0.322,1.003,0.674,1.365,1.056c0.357,0.388,0.837,1.061,1.445,2.04l1.536,2.461
			h-3.038l-1.838-2.743c-0.651-0.978-1.098-1.587-1.337-1.849c-0.239-0.252-0.492-0.428-0.766-0.52
			c-0.268-0.098-0.695-0.143-1.275-0.143h-0.519v5.255H152.579z"/>
	</g>
	<rect x="165.379" y="157.155" width="2.54" height="12.585"/>
	<polygon points="170.559,169.74 170.559,157.155 173.032,157.155 178.179,165.554 178.179,157.155 180.543,157.155 180.543,169.74 
		177.99,169.74 172.917,161.533 172.917,169.74 	"/>
	<path d="M190.093,164.761l-1.736-4.67l-1.699,4.67H190.093z M194.77,169.74h-2.763l-1.098-2.854h-5.031l-1.045,2.854h-2.692
		l4.9-12.585h2.687L194.77,169.74z"/>
	<g>
		<path d="M204.362,165.116l2.461,0.779c-0.378,1.371-1.004,2.389-1.885,3.06c-0.877,0.666-1.991,0.998-3.339,0.998
			c-1.675,0-3.047-0.568-4.123-1.713c-1.077-1.141-1.612-2.703-1.612-4.678c0-2.098,0.539-3.721,1.617-4.887
			c1.085-1.152,2.506-1.732,4.266-1.732c1.545,0,2.792,0.452,3.751,1.365c0.578,0.536,1.004,1.308,1.288,2.314l-2.51,0.602
			c-0.149-0.653-0.464-1.17-0.933-1.543c-0.476-0.379-1.049-0.566-1.722-0.566c-0.933,0-1.689,0.337-2.269,1.002
			c-0.581,0.67-0.873,1.753-0.873,3.256c0,1.59,0.288,2.725,0.859,3.395c0.573,0.676,1.316,1.017,2.23,1.017
			c0.681,0,1.256-0.222,1.744-0.644C203.798,166.707,204.151,166.034,204.362,165.116"/>
	</g>
	<rect x="209.123" y="157.155" width="2.538" height="12.585"/>
	<g>
		<path d="M216.372,163.439c0,1.424,0.335,2.51,0.992,3.239c0.659,0.738,1.492,1.105,2.506,1.105c1.015,0,1.841-0.366,2.493-1.095
			c0.651-0.73,0.975-1.826,0.975-3.285c0-1.441-0.311-2.514-0.948-3.227c-0.636-0.708-1.472-1.062-2.52-1.062
			c-1.05,0-1.887,0.354-2.531,1.076C216.701,160.909,216.372,161.99,216.372,163.439 M213.76,163.524
			c0-1.282,0.189-2.352,0.574-3.222c0.287-0.646,0.679-1.223,1.17-1.727c0.498-0.515,1.042-0.891,1.626-1.137
			c0.787-0.33,1.689-0.501,2.712-0.501c1.858,0,3.341,0.581,4.451,1.732c1.117,1.149,1.67,2.748,1.67,4.797
			c0,2.026-0.549,3.614-1.659,4.765c-1.103,1.148-2.579,1.721-4.426,1.721c-1.873,0-3.356-0.568-4.462-1.713
			C214.308,167.099,213.76,165.525,213.76,163.524"/>
	</g>
	<polygon points="228.163,169.74 228.163,157.155 230.633,157.155 235.787,165.554 235.787,157.155 238.147,157.155 238.147,169.74 
		235.599,169.74 230.526,161.533 230.526,169.74 	"/>
	<path d="M247.697,164.761l-1.738-4.67l-1.696,4.67H247.697z M252.376,169.74h-2.761l-1.104-2.854h-5.033l-1.034,2.854h-2.694
		l4.903-12.585h2.682L252.376,169.74z"/>
	<polygon points="253.988,169.74 253.988,157.258 256.528,157.258 256.528,167.621 262.841,167.621 262.841,169.74 	"/>
	<g>
		<path d="M272.139,159.288v8.333h1.896c0.71,0,1.223-0.045,1.538-0.125c0.41-0.102,0.751-0.275,1.026-0.52
			c0.273-0.246,0.492-0.651,0.661-1.216c0.173-0.564,0.261-1.331,0.261-2.306c0-0.969-0.088-1.719-0.261-2.242
			c-0.17-0.521-0.409-0.922-0.718-1.217c-0.308-0.291-0.701-0.488-1.175-0.59c-0.355-0.08-1.054-0.118-2.085-0.118H272.139z
			 M269.599,157.155h4.64c1.052,0,1.847,0.078,2.402,0.24c0.73,0.216,1.361,0.605,1.891,1.164c0.525,0.55,0.929,1.233,1.21,2.038
			c0.273,0.801,0.403,1.79,0.403,2.972c0,1.036-0.125,1.925-0.388,2.677c-0.308,0.914-0.756,1.658-1.345,2.223
			c-0.44,0.43-1.033,0.766-1.782,1.002c-0.563,0.184-1.315,0.27-2.249,0.27h-4.782V157.155z"/>
	</g>
	<polygon points="282.492,169.74 282.492,157.155 291.827,157.155 291.827,159.288 285.033,159.288 285.033,162.078 
		291.351,162.078 291.351,164.196 285.033,164.196 285.033,167.621 292.07,167.621 292.07,169.74 	"/>
	<g>
		<path d="M302.04,164.255v3.365h2.352c0.915,0,1.499-0.025,1.741-0.08c0.378-0.07,0.684-0.234,0.922-0.5
			c0.24-0.27,0.357-0.625,0.357-1.066c0-0.379-0.094-0.7-0.275-0.965c-0.186-0.266-0.445-0.457-0.792-0.574
			c-0.351-0.117-1.097-0.18-2.256-0.18H302.04z M302.04,159.248v2.912h1.663c0.992,0,1.603-0.014,1.849-0.042
			c0.435-0.053,0.774-0.2,1.027-0.45c0.241-0.249,0.37-0.578,0.37-0.984c0-0.389-0.103-0.707-0.324-0.945
			c-0.214-0.246-0.533-0.392-0.956-0.445c-0.254-0.03-0.974-0.045-2.172-0.045H302.04z M299.499,157.155h5.027
			c0.995,0,1.737,0.04,2.229,0.124c0.491,0.083,0.927,0.26,1.312,0.521c0.386,0.262,0.707,0.614,0.968,1.053
			c0.258,0.44,0.384,0.927,0.384,1.474c0,0.591-0.153,1.127-0.474,1.621c-0.317,0.49-0.746,0.859-1.294,1.104
			c0.766,0.227,1.357,0.607,1.768,1.146c0.412,0.536,0.617,1.173,0.617,1.896c0,0.569-0.133,1.128-0.393,1.666
			c-0.27,0.546-0.635,0.976-1.096,1.303c-0.461,0.319-1.031,0.517-1.703,0.593c-0.425,0.048-1.443,0.071-3.067,0.086h-4.278V157.155
			z"/>
		<path d="M314.48,163.439c0,1.424,0.33,2.51,0.988,3.239c0.66,0.738,1.492,1.105,2.505,1.105c1.014,0,1.844-0.366,2.499-1.095
			c0.646-0.73,0.971-1.826,0.971-3.285c0-1.441-0.319-2.514-0.955-3.227c-0.628-0.708-1.469-1.062-2.515-1.062
			s-1.89,0.354-2.532,1.076C314.804,160.909,314.48,161.99,314.48,163.439 M311.862,163.524c0-1.282,0.193-2.352,0.574-3.222
			c0.292-0.646,0.675-1.223,1.174-1.727c0.496-0.515,1.036-0.891,1.624-1.137c0.787-0.33,1.689-0.501,2.715-0.501
			c1.853,0,3.338,0.581,4.447,1.732c1.112,1.149,1.673,2.748,1.673,4.797c0,2.026-0.554,3.614-1.66,4.765
			c-1.102,1.148-2.578,1.721-4.429,1.721c-1.871,0-3.355-0.568-4.461-1.713C312.413,167.099,311.862,165.525,311.862,163.524"/>
	</g>
	<polygon points="326.312,169.74 326.312,157.258 328.851,157.258 328.851,167.621 335.168,167.621 335.168,169.74 	"/>
	<rect x="337.097" y="157.155" width="2.539" height="12.585"/>
	<polygon points="345.458,169.74 340.963,157.155 343.715,157.155 346.904,166.468 349.985,157.155 352.681,157.155 348.174,169.74 
			"/>
	<rect x="354.095" y="157.155" width="2.541" height="12.585"/>
	<path d="M365.919,164.761l-1.74-4.67l-1.695,4.67H365.919z M370.592,169.74h-2.762l-1.102-2.854H361.7l-1.036,2.854h-2.693
		l4.897-12.585h2.691L370.592,169.74z"/>
</g>
</svg>
